{
  "asset": {
    "generator": "Khronos glTF Blender I/O v5.2.40",
    "version": "2.0"
  },
  "extensionsUsed": [
    "KHR_materials_emissive_strength"
  ],
  "scene": 0,
  "scenes": [
    {
      "name": "MW05 | Showroom modern remake",
      "nodes": [
        0
      ]
    }
  ],
  "nodes": [
    {
      "mesh": 0,
      "name": "MW_Showroom_Remake",
      "translation": [
        -7,
        3.4000000953674316,
        6
      ]
    }
  ],
  "materials": [
    {
      "doubleSided": true,
      "name": "Showroom fixture | brushed metal",
      "pbrMetallicRoughness": {
        "baseColorFactor": [
          0.07500000298023224,
          0.0949999988079071,
          0.10999999940395355,
          1
        ],
        "metallicFactor": 0.800000011920929,
        "roughnessFactor": 0.30000001192092896
      }
    },
    {
      "doubleSided": true,
      "emissiveFactor": [
        0.8199999928474426,
        0.9100000262260437,
        1
      ],
      "extensions": {
        "KHR_materials_emissive_strength": {
          "emissiveStrength": 3
        }
      },
      "name": "Showroom fixture | diffuser",
      "pbrMetallicRoughness": {
        "baseColorFactor": [
          0.8199999928474426,
          0.9100000262260437,
          1,
          1
        ],
        "metallicFactor": 0,
        "roughnessFactor": 0.36000001430511475
      }
    },
    {
      "name": "Showroom | CARLOT_WALLCONCONCRETE",
      "normalTexture": {
        "index": 0,
        "scale": 0.5
      },
      "pbrMetallicRoughness": {
        "baseColorTexture": {
          "index": 1
        },
        "metallicRoughnessTexture": {
          "index": 2
        }
      }
    },
    {
      "name": "Showroom | CARLOT_RIPPLECONCRETE",
      "normalTexture": {
        "index": 3,
        "scale": 0.5
      },
      "pbrMetallicRoughness": {
        "baseColorTexture": {
          "index": 4
        },
        "metallicRoughnessTexture": {
          "index": 5
        }
      }
    },
    {
      "alphaMode": "BLEND",
      "doubleSided": true,
      "name": "Showroom | CARLOT_SIGN_P3",
      "pbrMetallicRoughness": {
        "baseColorTexture": {
          "index": 6
        },
        "metallicFactor": 0,
        "roughnessFactor": 0.6800000071525574
      }
    },
    {
      "alphaMode": "BLEND",
      "doubleSided": true,
      "name": "Showroom | CARLOT_SIGN_13",
      "pbrMetallicRoughness": {
        "baseColorTexture": {
          "index": 7
        },
        "metallicFactor": 0,
        "roughnessFactor": 0.6800000071525574
      }
    },
    {
      "alphaMode": "BLEND",
      "doubleSided": true,
      "name": "Showroom | CARLOT_SIGN_19",
      "pbrMetallicRoughness": {
        "baseColorTexture": {
          "index": 8
        },
        "metallicFactor": 0,
        "roughnessFactor": 0.6800000071525574
      }
    },
    {
      "name": "Showroom | CARLOT_DOOR01",
      "pbrMetallicRoughness": {
        "baseColorTexture": {
          "index": 9
        },
        "metallicFactor": 0,
        "roughnessFactor": 0.6800000071525574
      }
    },
    {
      "alphaMode": "BLEND",
      "doubleSided": true,
      "name": "Showroom | GRAF04",
      "pbrMetallicRoughness": {
        "baseColorTexture": {
          "index": 10
        },
        "metallicFactor": 0,
        "roughnessFactor": 0.6800000071525574
      }
    },
    {
      "name": "Showroom | CARLOT_YELLOWPILLAR",
      "pbrMetallicRoughness": {
        "baseColorTexture": {
          "index": 11
        },
        "metallicFactor": 0,
        "roughnessFactor": 0.6800000071525574
      }
    },
    {
      "name": "Showroom | CARLOT_CONCRETEFLOOR",
      "normalTexture": {
        "index": 12,
        "scale": 0.5
      },
      "pbrMetallicRoughness": {
        "baseColorTexture": {
          "index": 13
        },
        "metallicRoughnessTexture": {
          "index": 14
        }
      }
    },
    {
      "name": "Showroom | CARLOT_SIGN1",
      "pbrMetallicRoughness": {
        "baseColorTexture": {
          "index": 15
        },
        "metallicFactor": 0,
        "roughnessFactor": 0.6800000071525574
      }
    },
    {
      "name": "Showroom | CARLOT_SIGN2",
      "pbrMetallicRoughness": {
        "baseColorTexture": {
          "index": 16
        },
        "metallicFactor": 0,
        "roughnessFactor": 0.6800000071525574
      }
    },
    {
      "name": "Showroom | CARLOT_SIGN3",
      "pbrMetallicRoughness": {
        "baseColorTexture": {
          "index": 17
        },
        "metallicFactor": 0,
        "roughnessFactor": 0.6800000071525574
      }
    },
    {
      "name": "Showroom | CARLOT_SIGN4",
      "pbrMetallicRoughness": {
        "baseColorTexture": {
          "index": 18
        },
        "metallicFactor": 0,
        "roughnessFactor": 0.6800000071525574
      }
    },
    {
      "name": "Showroom | CARLOT_SIGN5",
      "pbrMetallicRoughness": {
        "baseColorTexture": {
          "index": 19
        },
        "metallicFactor": 0,
        "roughnessFactor": 0.6800000071525574
      }
    },
    {
      "name": "Showroom | CARLOT_YELLOWBAND",
      "pbrMetallicRoughness": {
        "baseColorTexture": {
          "index": 20
        },
        "metallicFactor": 0,
        "roughnessFactor": 0.6800000071525574
      }
    },
    {
      "alphaMode": "BLEND",
      "doubleSided": true,
      "name": "Showroom | CARLOT_SKIDS",
      "pbrMetallicRoughness": {
        "baseColorTexture": {
          "index": 21
        },
        "metallicFactor": 0,
        "roughnessFactor": 0.6800000071525574
      }
    },
    {
      "name": "Showroom | CARLOT_VENT1",
      "normalTexture": {
        "index": 22,
        "scale": 0.5
      },
      "pbrMetallicRoughness": {
        "baseColorTexture": {
          "index": 23
        },
        "metallicFactor": 0.7200000286102295,
        "roughnessFactor": 0.3499999940395355
      }
    },
    {
      "alphaMode": "BLEND",
      "doubleSided": true,
      "name": "Showroom | GRAF06",
      "pbrMetallicRoughness": {
        "baseColorTexture": {
          "index": 24
        },
        "metallicFactor": 0,
        "roughnessFactor": 0.6800000071525574
      }
    },
    {
      "name": "Showroom | CARLOT_VENT2",
      "normalTexture": {
        "index": 25,
        "scale": 0.5
      },
      "pbrMetallicRoughness": {
        "baseColorTexture": {
          "index": 26
        },
        "metallicFactor": 0.7200000286102295,
        "roughnessFactor": 0.3499999940395355
      }
    },
    {
      "name": "Showroom | CARLOT_MAPLEBARK_A_LL",
      "pbrMetallicRoughness": {
        "baseColorTexture": {
          "index": 27
        },
        "metallicFactor": 0,
        "roughnessFactor": 0.6800000071525574
      }
    },
    {
      "alphaMode": "BLEND",
      "doubleSided": true,
      "name": "Showroom | GRAF11",
      "pbrMetallicRoughness": {
        "baseColorTexture": {
          "index": 28
        },
        "metallicFactor": 0,
        "roughnessFactor": 0.6800000071525574
      }
    },
    {
      "alphaMode": "BLEND",
      "doubleSided": true,
      "name": "Showroom | CARLOT_WHITELINE",
      "pbrMetallicRoughness": {
        "baseColorTexture": {
          "index": 29
        },
        "metallicFactor": 0,
        "roughnessFactor": 0.6800000071525574
      }
    },
    {
      "alphaMode": "BLEND",
      "doubleSided": true,
      "name": "Showroom | CARLOT_SIGN_12",
      "pbrMetallicRoughness": {
        "baseColorTexture": {
          "index": 30
        },
        "metallicFactor": 0,
        "roughnessFactor": 0.6800000071525574
      }
    },
    {
      "alphaMode": "BLEND",
      "doubleSided": true,
      "name": "Showroom | CARLOT_SIGN_18",
      "pbrMetallicRoughness": {
        "baseColorTexture": {
          "index": 31
        },
        "metallicFactor": 0,
        "roughnessFactor": 0.6800000071525574
      }
    },
    {
      "alphaMode": "BLEND",
      "doubleSided": true,
      "name": "Showroom | GRAF01",
      "pbrMetallicRoughness": {
        "baseColorTexture": {
          "index": 32
        },
        "metallicFactor": 0,
        "roughnessFactor": 0.6800000071525574
      }
    },
    {
      "alphaMode": "BLEND",
      "doubleSided": true,
      "name": "Showroom | GRAF08",
      "pbrMetallicRoughness": {
        "baseColorTexture": {
          "index": 33
        },
        "metallicFactor": 0,
        "roughnessFactor": 0.6800000071525574
      }
    },
    {
      "alphaMode": "BLEND",
      "doubleSided": true,
      "name": "Showroom | GRAF03",
      "pbrMetallicRoughness": {
        "baseColorTexture": {
          "index": 34
        },
        "metallicFactor": 0,
        "roughnessFactor": 0.6800000071525574
      }
    },
    {
      "name": "Showroom | CARLOT_PIPE1",
      "normalTexture": {
        "index": 35,
        "scale": 0.5
      },
      "pbrMetallicRoughness": {
        "baseColorTexture": {
          "index": 36
        },
        "metallicFactor": 0.7200000286102295,
        "roughnessFactor": 0.3499999940395355
      }
    },
    {
      "alphaMode": "MASK",
      "doubleSided": true,
      "name": "Showroom | CARLOT_TREE_DEC1BRANCH",
      "pbrMetallicRoughness": {
        "baseColorTexture": {
          "index": 37
        },
        "metallicFactor": 0,
        "roughnessFactor": 0.6800000071525574
      },
      "alphaCutoff": 0.4
    },
    {
      "name": "Showroom | CARLOT_WHITERUSTEDMETAL",
      "pbrMetallicRoughness": {
        "baseColorFactor": [
          0.18000000715255737,
          0.20499999821186066,
          0.2199999988079071,
          1
        ],
        "metallicRoughnessTexture": {
          "index": 38
        }
      }
    },
    {
      "alphaMode": "MASK",
      "doubleSided": true,
      "name": "Showroom | CARLOT_CT_FALLTREETOP1",
      "pbrMetallicRoughness": {
        "baseColorTexture": {
          "index": 39
        },
        "metallicFactor": 0,
        "roughnessFactor": 0.6800000071525574
      },
      "alphaCutoff": 0.4
    },
    {
      "alphaMode": "BLEND",
      "doubleSided": true,
      "name": "Showroom | GRAF05",
      "pbrMetallicRoughness": {
        "baseColorTexture": {
          "index": 40
        },
        "metallicFactor": 0,
        "roughnessFactor": 0.6800000071525574
      }
    },
    {
      "alphaMode": "BLEND",
      "doubleSided": true,
      "name": "Showroom | CARLOT_SIGN_17",
      "pbrMetallicRoughness": {
        "baseColorTexture": {
          "index": 41
        },
        "metallicFactor": 0,
        "roughnessFactor": 0.6800000071525574
      }
    },
    {
      "alphaMode": "BLEND",
      "doubleSided": true,
      "name": "Showroom | CARLOT_CRACKS",
      "pbrMetallicRoughness": {
        "baseColorTexture": {
          "index": 42
        },
        "metallicFactor": 0,
        "roughnessFactor": 0.6800000071525574
      }
    },
    {
      "alphaMode": "BLEND",
      "doubleSided": true,
      "name": "Showroom | GRAF10",
      "pbrMetallicRoughness": {
        "baseColorTexture": {
          "index": 43
        },
        "metallicFactor": 0,
        "roughnessFactor": 0.6800000071525574
      }
    },
    {
      "name": "Showroom | CARLOT_TICKETDISPENSER",
      "pbrMetallicRoughness": {
        "baseColorTexture": {
          "index": 44
        },
        "metallicFactor": 0,
        "roughnessFactor": 0.6800000071525574
      }
    },
    {
      "alphaMode": "BLEND",
      "doubleSided": true,
      "name": "Showroom | GRAF07",
      "pbrMetallicRoughness": {
        "baseColorTexture": {
          "index": 45
        },
        "metallicFactor": 0,
        "roughnessFactor": 0.6800000071525574
      }
    },
    {
      "alphaMode": "BLEND",
      "doubleSided": true,
      "name": "Showroom | GRAF12",
      "pbrMetallicRoughness": {
        "baseColorTexture": {
          "index": 46
        },
        "metallicFactor": 0,
        "roughnessFactor": 0.6800000071525574
      }
    },
    {
      "name": "Showroom | CARLOT_BLACKRUSTEDMETAL",
      "pbrMetallicRoughness": {
        "baseColorFactor": [
          0.18000000715255737,
          0.20499999821186066,
          0.2199999988079071,
          1
        ],
        "metallicRoughnessTexture": {
          "index": 47
        }
      }
    },
    {
      "name": "Showroom | GREY",
      "pbrMetallicRoughness": {
        "baseColorTexture": {
          "index": 48
        },
        "metallicFactor": 0,
        "roughnessFactor": 0.6800000071525574
      }
    },
    {
      "alphaMode": "BLEND",
      "doubleSided": true,
      "name": "Showroom | GRAF02",
      "pbrMetallicRoughness": {
        "baseColorTexture": {
          "index": 49
        },
        "metallicFactor": 0,
        "roughnessFactor": 0.6800000071525574
      }
    },
    {
      "alphaMode": "BLEND",
      "doubleSided": true,
      "name": "Showroom | GRAF09",
      "pbrMetallicRoughness": {
        "baseColorTexture": {
          "index": 50
        },
        "metallicFactor": 0,
        "roughnessFactor": 0.6800000071525574
      }
    },
    {
      "name": "Showroom | CARLOT_MAPLEBCH_A_LL",
      "pbrMetallicRoughness": {
        "baseColorTexture": {
          "index": 51
        },
        "metallicFactor": 0,
        "roughnessFactor": 0.6800000071525574
      }
    }
  ],
  "meshes": [
    {
      "name": "Cube.008",
      "primitives": [
        {
          "attributes": {
            "POSITION": 0,
            "NORMAL": 1,
            "TEXCOORD_0": 2,
            "TANGENT": 3
          },
          "indices": 4,
          "material": 0
        },
        {
          "attributes": {
            "POSITION": 5,
            "NORMAL": 6,
            "TEXCOORD_0": 7,
            "TANGENT": 8
          },
          "indices": 9,
          "material": 1
        },
        {
          "attributes": {
            "POSITION": 10,
            "NORMAL": 11,
            "TEXCOORD_0": 12,
            "TANGENT": 13
          },
          "indices": 14,
          "material": 2
        },
        {
          "attributes": {
            "POSITION": 15,
            "NORMAL": 16,
            "TEXCOORD_0": 17,
            "TANGENT": 18
          },
          "indices": 19,
          "material": 3
        },
        {
          "attributes": {
            "POSITION": 20,
            "NORMAL": 21,
            "TEXCOORD_0": 22,
            "TANGENT": 23
          },
          "indices": 24,
          "material": 4
        },
        {
          "attributes": {
            "POSITION": 25,
            "NORMAL": 26,
            "TEXCOORD_0": 27,
            "TANGENT": 28
          },
          "indices": 29,
          "material": 5
        },
        {
          "attributes": {
            "POSITION": 30,
            "NORMAL": 31,
            "TEXCOORD_0": 32,
            "TANGENT": 33
          },
          "indices": 29,
          "material": 6
        },
        {
          "attributes": {
            "POSITION": 34,
            "NORMAL": 35,
            "TEXCOORD_0": 36,
            "TANGENT": 37
          },
          "indices": 38,
          "material": 7
        },
        {
          "attributes": {
            "POSITION": 39,
            "NORMAL": 40,
            "TEXCOORD_0": 41,
            "TANGENT": 42
          },
          "indices": 43,
          "material": 8
        },
        {
          "attributes": {
            "POSITION": 44,
            "NORMAL": 45,
            "TEXCOORD_0": 46,
            "TANGENT": 47
          },
          "indices": 48,
          "material": 9
        },
        {
          "attributes": {
            "POSITION": 49,
            "NORMAL": 50,
            "TEXCOORD_0": 51,
            "TANGENT": 52
          },
          "indices": 53,
          "material": 10
        },
        {
          "attributes": {
            "POSITION": 54,
            "NORMAL": 55,
            "TEXCOORD_0": 56,
            "TANGENT": 57
          },
          "indices": 29,
          "material": 11
        },
        {
          "attributes": {
            "POSITION": 58,
            "NORMAL": 59,
            "TEXCOORD_0": 60,
            "TANGENT": 61
          },
          "indices": 29,
          "material": 12
        },
        {
          "attributes": {
            "POSITION": 62,
            "NORMAL": 63,
            "TEXCOORD_0": 64,
            "TANGENT": 65
          },
          "indices": 66,
          "material": 13
        },
        {
          "attributes": {
            "POSITION": 67,
            "NORMAL": 68,
            "TEXCOORD_0": 69,
            "TANGENT": 70
          },
          "indices": 29,
          "material": 14
        },
        {
          "attributes": {
            "POSITION": 71,
            "NORMAL": 72,
            "TEXCOORD_0": 73,
            "TANGENT": 74
          },
          "indices": 29,
          "material": 15
        },
        {
          "attributes": {
            "POSITION": 75,
            "NORMAL": 76,
            "TEXCOORD_0": 77,
            "TANGENT": 78
          },
          "indices": 79,
          "material": 16
        },
        {
          "attributes": {
            "POSITION": 80,
            "NORMAL": 81,
            "TEXCOORD_0": 82,
            "TANGENT": 83
          },
          "indices": 84,
          "material": 17
        },
        {
          "attributes": {
            "POSITION": 85,
            "NORMAL": 86,
            "TEXCOORD_0": 87,
            "TANGENT": 88
          },
          "indices": 89,
          "material": 18
        },
        {
          "attributes": {
            "POSITION": 90,
            "NORMAL": 91,
            "TEXCOORD_0": 92,
            "TANGENT": 93
          },
          "indices": 94,
          "material": 19
        },
        {
          "attributes": {
            "POSITION": 95,
            "NORMAL": 96,
            "TEXCOORD_0": 97,
            "TANGENT": 98
          },
          "indices": 99,
          "material": 20
        },
        {
          "attributes": {
            "POSITION": 100,
            "NORMAL": 101,
            "TEXCOORD_0": 102,
            "TANGENT": 103
          },
          "indices": 104,
          "material": 21
        },
        {
          "attributes": {
            "POSITION": 105,
            "NORMAL": 106,
            "TEXCOORD_0": 107,
            "TANGENT": 108
          },
          "indices": 43,
          "material": 22
        },
        {
          "attributes": {
            "POSITION": 109,
            "NORMAL": 110,
            "TEXCOORD_0": 111,
            "TANGENT": 112
          },
          "indices": 113,
          "material": 23
        },
        {
          "attributes": {
            "POSITION": 114,
            "NORMAL": 115,
            "TEXCOORD_0": 116,
            "TANGENT": 117
          },
          "indices": 29,
          "material": 24
        },
        {
          "attributes": {
            "POSITION": 118,
            "NORMAL": 119,
            "TEXCOORD_0": 120,
            "TANGENT": 121
          },
          "indices": 29,
          "material": 25
        },
        {
          "attributes": {
            "POSITION": 122,
            "NORMAL": 123,
            "TEXCOORD_0": 124,
            "TANGENT": 125
          },
          "indices": 43,
          "material": 26
        },
        {
          "attributes": {
            "POSITION": 126,
            "NORMAL": 127,
            "TEXCOORD_0": 128,
            "TANGENT": 129
          },
          "indices": 43,
          "material": 27
        },
        {
          "attributes": {
            "POSITION": 130,
            "NORMAL": 131,
            "TEXCOORD_0": 132,
            "TANGENT": 133
          },
          "indices": 43,
          "material": 28
        },
        {
          "attributes": {
            "POSITION": 134,
            "NORMAL": 135,
            "TEXCOORD_0": 136,
            "TANGENT": 137
          },
          "indices": 138,
          "material": 29
        },
        {
          "attributes": {
            "POSITION": 139,
            "NORMAL": 140,
            "TEXCOORD_0": 141,
            "TANGENT": 142
          },
          "indices": 143,
          "material": 30
        },
        {
          "attributes": {
            "POSITION": 144,
            "NORMAL": 145,
            "TEXCOORD_0": 146,
            "TANGENT": 147
          },
          "indices": 148,
          "material": 31
        },
        {
          "attributes": {
            "POSITION": 149,
            "NORMAL": 150,
            "TEXCOORD_0": 151,
            "TANGENT": 152
          },
          "indices": 153,
          "material": 32
        },
        {
          "attributes": {
            "POSITION": 154,
            "NORMAL": 155,
            "TEXCOORD_0": 156,
            "TANGENT": 157
          },
          "indices": 43,
          "material": 33
        },
        {
          "attributes": {
            "POSITION": 158,
            "NORMAL": 159,
            "TEXCOORD_0": 160,
            "TANGENT": 161
          },
          "indices": 29,
          "material": 34
        },
        {
          "attributes": {
            "POSITION": 162,
            "NORMAL": 163,
            "TEXCOORD_0": 164,
            "TANGENT": 165
          },
          "indices": 166,
          "material": 35
        },
        {
          "attributes": {
            "POSITION": 167,
            "NORMAL": 168,
            "TEXCOORD_0": 169,
            "TANGENT": 170
          },
          "indices": 43,
          "material": 36
        },
        {
          "attributes": {
            "POSITION": 171,
            "NORMAL": 172,
            "TEXCOORD_0": 173,
            "TANGENT": 174
          },
          "indices": 175,
          "material": 37
        },
        {
          "attributes": {
            "POSITION": 176,
            "NORMAL": 177,
            "TEXCOORD_0": 178,
            "TANGENT": 179
          },
          "indices": 43,
          "material": 38
        },
        {
          "attributes": {
            "POSITION": 180,
            "NORMAL": 181,
            "TEXCOORD_0": 182,
            "TANGENT": 183
          },
          "indices": 94,
          "material": 39
        },
        {
          "attributes": {
            "POSITION": 184,
            "NORMAL": 185,
            "TEXCOORD_0": 186,
            "TANGENT": 187
          },
          "indices": 188,
          "material": 40
        },
        {
          "attributes": {
            "POSITION": 189,
            "NORMAL": 190,
            "TEXCOORD_0": 191,
            "TANGENT": 192
          },
          "indices": 193,
          "material": 41
        },
        {
          "attributes": {
            "POSITION": 194,
            "NORMAL": 195,
            "TEXCOORD_0": 196,
            "TANGENT": 197
          },
          "indices": 43,
          "material": 42
        },
        {
          "attributes": {
            "POSITION": 198,
            "NORMAL": 199,
            "TEXCOORD_0": 200,
            "TANGENT": 201
          },
          "indices": 43,
          "material": 43
        },
        {
          "attributes": {
            "POSITION": 202,
            "NORMAL": 203,
            "TEXCOORD_0": 204,
            "TANGENT": 205
          },
          "indices": 206,
          "material": 44
        }
      ]
    }
  ],
  "textures": [
    {
      "sampler": 0,
      "source": 0
    },
    {
      "sampler": 0,
      "source": 1
    },
    {
      "sampler": 0,
      "source": 2
    },
    {
      "sampler": 0,
      "source": 0
    },
    {
      "sampler": 0,
      "source": 1
    },
    {
      "sampler": 0,
      "source": 2
    },
    {
      "sampler": 0,
      "source": 3
    },
    {
      "sampler": 0,
      "source": 4
    },
    {
      "sampler": 0,
      "source": 5
    },
    {
      "sampler": 0,
      "source": 6
    },
    {
      "sampler": 0,
      "source": 7
    },
    {
      "sampler": 0,
      "source": 8
    },
    {
      "sampler": 0,
      "source": 0
    },
    {
      "sampler": 0,
      "source": 1
    },
    {
      "sampler": 0,
      "source": 9
    },
    {
      "sampler": 0,
      "source": 10
    },
    {
      "sampler": 0,
      "source": 11
    },
    {
      "sampler": 0,
      "source": 12
    },
    {
      "sampler": 0,
      "source": 13
    },
    {
      "sampler": 0,
      "source": 14
    },
    {
      "sampler": 0,
      "source": 15
    },
    {
      "sampler": 0,
      "source": 16
    },
    {
      "sampler": 0,
      "source": 17
    },
    {
      "sampler": 0,
      "source": 18
    },
    {
      "sampler": 0,
      "source": 19
    },
    {
      "sampler": 0,
      "source": 20
    },
    {
      "sampler": 0,
      "source": 21
    },
    {
      "sampler": 0,
      "source": 22
    },
    {
      "sampler": 0,
      "source": 23
    },
    {
      "sampler": 0,
      "source": 24
    },
    {
      "sampler": 0,
      "source": 25
    },
    {
      "sampler": 0,
      "source": 26
    },
    {
      "sampler": 0,
      "source": 27
    },
    {
      "sampler": 0,
      "source": 28
    },
    {
      "sampler": 0,
      "source": 29
    },
    {
      "sampler": 0,
      "source": 30
    },
    {
      "sampler": 0,
      "source": 31
    },
    {
      "sampler": 0,
      "source": 32
    },
    {
      "sampler": 0,
      "source": 33
    },
    {
      "sampler": 0,
      "source": 34
    },
    {
      "sampler": 0,
      "source": 35
    },
    {
      "sampler": 0,
      "source": 36
    },
    {
      "sampler": 0,
      "source": 37
    },
    {
      "sampler": 0,
      "source": 38
    },
    {
      "sampler": 0,
      "source": 39
    },
    {
      "sampler": 0,
      "source": 40
    },
    {
      "sampler": 0,
      "source": 41
    },
    {
      "sampler": 0,
      "source": 33
    },
    {
      "sampler": 0,
      "source": 42
    },
    {
      "sampler": 0,
      "source": 43
    },
    {
      "sampler": 0,
      "source": 44
    },
    {
      "sampler": 0,
      "source": 45
    }
  ],
  "images": [
    {
      "mimeType": "image/png",
      "name": "concrete_Normal_2K",
      "uri": "Textures/concrete_Normal_2K.png"
    },
    {
      "mimeType": "image/png",
      "name": "concrete_BaseColor_2K",
      "uri": "Textures/concrete_BaseColor_2K.png"
    },
    {
      "mimeType": "image/png",
      "name": "wall_ORM_1K",
      "uri": "Textures/wall_ORM_1K.png"
    },
    {
      "mimeType": "image/png",
      "name": "0x14441EF6",
      "uri": "Textures/0x14441EF6.png"
    },
    {
      "mimeType": "image/png",
      "name": "0x14441AF7",
      "uri": "Textures/0x14441AF7.png"
    },
    {
      "mimeType": "image/png",
      "name": "0x14441AFD",
      "uri": "Textures/0x14441AFD.png"
    },
    {
      "mimeType": "image/png",
      "name": "0x907D71D8",
      "uri": "Textures/0x907D71D8.png"
    },
    {
      "mimeType": "image/png",
      "name": "0x5E94B603",
      "uri": "Textures/0x5E94B603.png"
    },
    {
      "mimeType": "image/png",
      "name": "0x728D22A3",
      "uri": "Textures/0x728D22A3.png"
    },
    {
      "mimeType": "image/png",
      "name": "Showroom_ORM_1K",
      "uri": "Textures/Showroom_ORM_1K.png"
    },
    {
      "mimeType": "image/png",
      "name": "0x4B3E5B85",
      "uri": "Textures/0x4B3E5B85.png"
    },
    {
      "mimeType": "image/png",
      "name": "0x4B3E5B86",
      "uri": "Textures/0x4B3E5B86.png"
    },
    {
      "mimeType": "image/png",
      "name": "0x4B3E5B87",
      "uri": "Textures/0x4B3E5B87.png"
    },
    {
      "mimeType": "image/png",
      "name": "0x4B3E5B88",
      "uri": "Textures/0x4B3E5B88.png"
    },
    {
      "mimeType": "image/png",
      "name": "0x4B3E5B89",
      "uri": "Textures/0x4B3E5B89.png"
    },
    {
      "mimeType": "image/png",
      "name": "0x13960ED4",
      "uri": "Textures/0x13960ED4.png"
    },
    {
      "mimeType": "image/png",
      "name": "0x4B3F7BA1",
      "uri": "Textures/0x4B3F7BA1.png"
    },
    {
      "mimeType": "image/png",
      "name": "0x3F8C38B9",
      "uri": "Textures/0x3F8C38B9.png"
    },
    {
      "mimeType": "image/png",
      "name": "0x4B729211",
      "uri": "Textures/0x4B729211.png"
    },
    {
      "mimeType": "image/png",
      "name": "0x5E94B605",
      "uri": "Textures/0x5E94B605.png"
    },
    {
      "mimeType": "image/png",
      "name": "0x2BCE0D9A",
      "uri": "Textures/0x2BCE0D9A.png"
    },
    {
      "mimeType": "image/png",
      "name": "0x4B729212",
      "uri": "Textures/0x4B729212.png"
    },
    {
      "mimeType": "image/png",
      "name": "0x2F0396E9",
      "uri": "Textures/0x2F0396E9.png"
    },
    {
      "mimeType": "image/png",
      "name": "0x5E94B621",
      "uri": "Textures/0x5E94B621.png"
    },
    {
      "mimeType": "image/png",
      "name": "0xC192CA2C",
      "uri": "Textures/0xC192CA2C.png"
    },
    {
      "mimeType": "image/png",
      "name": "0x14441AF6",
      "uri": "Textures/0x14441AF6.png"
    },
    {
      "mimeType": "image/png",
      "name": "0x14441AFC",
      "uri": "Textures/0x14441AFC.png"
    },
    {
      "mimeType": "image/png",
      "name": "0x5E94B600",
      "uri": "Textures/0x5E94B600.png"
    },
    {
      "mimeType": "image/png",
      "name": "0x5E94B607",
      "uri": "Textures/0x5E94B607.png"
    },
    {
      "mimeType": "image/png",
      "name": "0x5E94B602",
      "uri": "Textures/0x5E94B602.png"
    },
    {
      "mimeType": "image/png",
      "name": "0x641560AA",
      "uri": "Textures/0x641560AA.png"
    },
    {
      "mimeType": "image/png",
      "name": "0x4B083722",
      "uri": "Textures/0x4B083722.png"
    },
    {
      "mimeType": "image/png",
      "name": "0x2F9A967D",
      "uri": "Textures/0x2F9A967D.png"
    },
    {
      "mimeType": "image/png",
      "name": "pipe_ORM_1K",
      "uri": "Textures/pipe_ORM_1K.png"
    },
    {
      "mimeType": "image/png",
      "name": "0x60951B0C",
      "uri": "Textures/0x60951B0C.png"
    },
    {
      "mimeType": "image/png",
      "name": "0x5E94B604",
      "uri": "Textures/0x5E94B604.png"
    },
    {
      "mimeType": "image/png",
      "name": "0x14441AFB",
      "uri": "Textures/0x14441AFB.png"
    },
    {
      "mimeType": "image/png",
      "name": "0x8E56A93A",
      "uri": "Textures/0x8E56A93A.png"
    },
    {
      "mimeType": "image/png",
      "name": "0x5E94B620",
      "uri": "Textures/0x5E94B620.png"
    },
    {
      "mimeType": "image/png",
      "name": "0xC49C2534",
      "uri": "Textures/0xC49C2534.png"
    },
    {
      "mimeType": "image/png",
      "name": "0x5E94B606",
      "uri": "Textures/0x5E94B606.png"
    },
    {
      "mimeType": "image/png",
      "name": "0x5E94B622",
      "uri": "Textures/0x5E94B622.png"
    },
    {
      "mimeType": "image/png",
      "name": "0x00163C76",
      "uri": "Textures/0x00163C76.png"
    },
    {
      "mimeType": "image/png",
      "name": "0x5E94B601",
      "uri": "Textures/0x5E94B601.png"
    },
    {
      "mimeType": "image/png",
      "name": "0x5E94B608",
      "uri": "Textures/0x5E94B608.png"
    },
    {
      "mimeType": "image/png",
      "name": "0x85678E16",
      "uri": "Textures/0x85678E16.png"
    }
  ],
  "accessors": [
    {
      "bufferView": 0,
      "componentType": 5126,
      "count": 2058,
      "max": [
        7.110000133514404,
        0.03500000014901161,
        0.800000011920929
      ],
      "min": [
        -0.10999999940395355,
        -0.03500000014901161,
        -11.800000190734863
      ],
      "type": "VEC3"
    },
    {
      "bufferView": 1,
      "componentType": 5126,
      "count": 2058,
      "type": "VEC3"
    },
    {
      "bufferView": 2,
      "componentType": 5126,
      "count": 2058,
      "type": "VEC2"
    },
    {
      "bufferView": 3,
      "componentType": 5126,
      "count": 2058,
      "type": "VEC4"
    },
    {
      "bufferView": 4,
      "componentType": 5123,
      "count": 2256,
      "type": "SCALAR"
    },
    {
      "bufferView": 5,
      "componentType": 5126,
      "count": 1792,
      "max": [
        7.079999923706055,
        -0.033999983221292496,
        0.7599999904632568
      ],
      "min": [
        -0.07999999821186066,
        -0.051999982446432114,
        -11.760000228881836
      ],
      "type": "VEC3"
    },
    {
      "bufferView": 6,
      "componentType": 5126,
      "count": 1792,
      "type": "VEC3"
    },
    {
      "bufferView": 7,
      "componentType": 5126,
      "count": 1792,
      "type": "VEC2"
    },
    {
      "bufferView": 8,
      "componentType": 5126,
      "count": 1792,
      "type": "VEC4"
    },
    {
      "bufferView": 9,
      "componentType": 5123,
      "count": 1872,
      "type": "SCALAR"
    },
    {
      "bufferView": 10,
      "componentType": 5126,
      "count": 6251,
      "max": [
        94.04251861572266,
        20.17426109313965,
        45.37614822387695
      ],
      "min": [
        -47.559200286865234,
        -9.668695449829102,
        -44.124168395996094
      ],
      "type": "VEC3"
    },
    {
      "bufferView": 11,
      "componentType": 5126,
      "count": 6251,
      "type": "VEC3"
    },
    {
      "bufferView": 12,
      "componentType": 5126,
      "count": 6251,
      "type": "VEC2"
    },
    {
      "bufferView": 13,
      "componentType": 5126,
      "count": 6251,
      "type": "VEC4"
    },
    {
      "bufferView": 14,
      "componentType": 5123,
      "count": 13401,
      "type": "SCALAR"
    },
    {
      "bufferView": 15,
      "componentType": 5126,
      "count": 168,
      "max": [
        -1.8792505264282227,
        7.58044958114624,
        16.555200576782227
      ],
      "min": [
        -31.099998474121094,
        -5.815704345703125,
        -13.315199851989746
      ],
      "type": "VEC3"
    },
    {
      "bufferView": 16,
      "componentType": 5126,
      "count": 168,
      "type": "VEC3"
    },
    {
      "bufferView": 17,
      "componentType": 5126,
      "count": 168,
      "type": "VEC2"
    },
    {
      "bufferView": 18,
      "componentType": 5126,
      "count": 168,
      "type": "VEC4"
    },
    {
      "bufferView": 19,
      "componentType": 5123,
      "count": 375,
      "type": "SCALAR"
    },
    {
      "bufferView": 20,
      "componentType": 5126,
      "count": 26917,
      "max": [
        15.178897857666016,
        2.918548583984375,
        32.69158172607422
      ],
      "min": [
        -1.641657829284668,
        -3.9675793647766113,
        -29.760330200195312
      ],
      "type": "VEC3"
    },
    {
      "bufferView": 21,
      "componentType": 5126,
      "count": 26917,
      "type": "VEC3"
    },
    {
      "bufferView": 22,
      "componentType": 5126,
      "count": 26917,
      "type": "VEC2"
    },
    {
      "bufferView": 23,
      "componentType": 5126,
      "count": 26917,
      "type": "VEC4"
    },
    {
      "bufferView": 24,
      "componentType": 5123,
      "count": 45357,
      "type": "SCALAR"
    },
    {
      "bufferView": 25,
      "componentType": 5126,
      "count": 4,
      "max": [
        10.603650093078613,
        -3.236095428466797,
        -2.61028790473938
      ],
      "min": [
        10.07916259765625,
        -3.2859253883361816,
        -3.315502882003784
      ],
      "type": "VEC3"
    },
    {
      "bufferView": 26,
      "componentType": 5126,
      "count": 4,
      "type": "VEC3"
    },
    {
      "bufferView": 27,
      "componentType": 5126,
      "count": 4,
      "type": "VEC2"
    },
    {
      "bufferView": 28,
      "componentType": 5126,
      "count": 4,
      "type": "VEC4"
    },
    {
      "bufferView": 29,
      "componentType": 5123,
      "count": 6,
      "type": "SCALAR"
    },
    {
      "bufferView": 30,
      "componentType": 5126,
      "count": 4,
      "max": [
        3.967150926589966,
        -3.4397382736206055,
        -6.681769847869873
      ],
      "min": [
        3.441632032394409,
        -3.480278253555298,
        -7.386984825134277
      ],
      "type": "VEC3"
    },
    {
      "bufferView": 31,
      "componentType": 5126,
      "count": 4,
      "type": "VEC3"
    },
    {
      "bufferView": 32,
      "componentType": 5126,
      "count": 4,
      "type": "VEC2"
    },
    {
      "bufferView": 33,
      "componentType": 5126,
      "count": 4,
      "type": "VEC4"
    },
    {
      "bufferView": 34,
      "componentType": 5126,
      "count": 22,
      "max": [
        -0.9247989654541016,
        -0.08725404739379883,
        5.037659645080566
      ],
      "min": [
        -1.0149612426757812,
        -3.2278573513031006,
        3.1817264556884766
      ],
      "type": "VEC3"
    },
    {
      "bufferView": 35,
      "componentType": 5126,
      "count": 22,
      "type": "VEC3"
    },
    {
      "bufferView": 36,
      "componentType": 5126,
      "count": 22,
      "type": "VEC2"
    },
    {
      "bufferView": 37,
      "componentType": 5126,
      "count": 22,
      "type": "VEC4"
    },
    {
      "bufferView": 38,
      "componentType": 5123,
      "count": 42,
      "type": "SCALAR"
    },
    {
      "bufferView": 39,
      "componentType": 5126,
      "count": 5,
      "max": [
        15.192874908447266,
        -1.0012450218200684,
        -5.066019535064697
      ],
      "min": [
        15.192874908447266,
        -3.5210201740264893,
        -10.088138580322266
      ],
      "type": "VEC3"
    },
    {
      "bufferView": 40,
      "componentType": 5126,
      "count": 5,
      "type": "VEC3"
    },
    {
      "bufferView": 41,
      "componentType": 5126,
      "count": 5,
      "type": "VEC2"
    },
    {
      "bufferView": 42,
      "componentType": 5126,
      "count": 5,
      "type": "VEC4"
    },
    {
      "bufferView": 43,
      "componentType": 5123,
      "count": 9,
      "type": "SCALAR"
    },
    {
      "bufferView": 44,
      "componentType": 5126,
      "count": 294,
      "max": [
        14.273622512817383,
        -1.542362093925476,
        16.069189071655273
      ],
      "min": [
        -0.0735630989074707,
        -3.9035308361053467,
        -13.612954139709473
      ],
      "type": "VEC3"
    },
    {
      "bufferView": 45,
      "componentType": 5126,
      "count": 294,
      "type": "VEC3"
    },
    {
      "bufferView": 46,
      "componentType": 5126,
      "count": 294,
      "type": "VEC2"
    },
    {
      "bufferView": 47,
      "componentType": 5126,
      "count": 294,
      "type": "VEC4"
    },
    {
      "bufferView": 48,
      "componentType": 5123,
      "count": 756,
      "type": "SCALAR"
    },
    {
      "bufferView": 49,
      "componentType": 5126,
      "count": 182,
      "max": [
        15.229598999023438,
        3.477583885192871,
        33.014400482177734
      ],
      "min": [
        -47.559200286865234,
        -8.907962799072266,
        -29.77440071105957
      ],
      "type": "VEC3"
    },
    {
      "bufferView": 50,
      "componentType": 5126,
      "count": 182,
      "type": "VEC3"
    },
    {
      "bufferView": 51,
      "componentType": 5126,
      "count": 182,
      "type": "VEC2"
    },
    {
      "bufferView": 52,
      "componentType": 5126,
      "count": 182,
      "type": "VEC4"
    },
    {
      "bufferView": 53,
      "componentType": 5123,
      "count": 879,
      "type": "SCALAR"
    },
    {
      "bufferView": 54,
      "componentType": 5126,
      "count": 4,
      "max": [
        -0.5560522079467773,
        -0.5276920795440674,
        1.99993896484375
      ],
      "min": [
        -0.5832037925720215,
        -1.6747170686721802,
        1.2400598526000977
      ],
      "type": "VEC3"
    },
    {
      "bufferView": 55,
      "componentType": 5126,
      "count": 4,
      "type": "VEC3"
    },
    {
      "bufferView": 56,
      "componentType": 5126,
      "count": 4,
      "type": "VEC2"
    },
    {
      "bufferView": 57,
      "componentType": 5126,
      "count": 4,
      "type": "VEC4"
    },
    {
      "bufferView": 58,
      "componentType": 5126,
      "count": 4,
      "max": [
        -0.57611083984375,
        -1.514362096786499,
        -12.755760192871094
      ],
      "min": [
        -0.5920171737670898,
        -2.186300039291382,
        -13.529788970947266
      ],
      "type": "VEC3"
    },
    {
      "bufferView": 59,
      "componentType": 5126,
      "count": 4,
      "type": "VEC3"
    },
    {
      "bufferView": 60,
      "componentType": 5126,
      "count": 4,
      "type": "VEC2"
    },
    {
      "bufferView": 61,
      "componentType": 5126,
      "count": 4,
      "type": "VEC4"
    },
    {
      "bufferView": 62,
      "componentType": 5126,
      "count": 24,
      "max": [
        -0.8465919494628906,
        -2.3515961170196533,
        -1.1226239204406738
      ],
      "min": [
        -0.8933811187744141,
        -3.449782609939575,
        -10.720901489257812
      ],
      "type": "VEC3"
    },
    {
      "bufferView": 63,
      "componentType": 5126,
      "count": 24,
      "type": "VEC3"
    },
    {
      "bufferView": 64,
      "componentType": 5126,
      "count": 24,
      "type": "VEC2"
    },
    {
      "bufferView": 65,
      "componentType": 5126,
      "count": 24,
      "type": "VEC4"
    },
    {
      "bufferView": 66,
      "componentType": 5123,
      "count": 54,
      "type": "SCALAR"
    },
    {
      "bufferView": 67,
      "componentType": 5126,
      "count": 4,
      "max": [
        14.614839553833008,
        -1.262052059173584,
        1.979252815246582
      ],
      "min": [
        14.614839553833008,
        -1.609058141708374,
        1.2559318542480469
      ],
      "type": "VEC3"
    },
    {
      "bufferView": 68,
      "componentType": 5126,
      "count": 4,
      "type": "VEC3"
    },
    {
      "bufferView": 69,
      "componentType": 5126,
      "count": 4,
      "type": "VEC2"
    },
    {
      "bufferView": 70,
      "componentType": 5126,
      "count": 4,
      "type": "VEC4"
    },
    {
      "bufferView": 71,
      "componentType": 5126,
      "count": 4,
      "max": [
        8.91671085357666,
        1.4220008850097656,
        1.1161818504333496
      ],
      "min": [
        5.059782028198242,
        0.9541077613830566,
        1.1161818504333496
      ],
      "type": "VEC3"
    },
    {
      "bufferView": 72,
      "componentType": 5126,
      "count": 4,
      "type": "VEC3"
    },
    {
      "bufferView": 73,
      "componentType": 5126,
      "count": 4,
      "type": "VEC2"
    },
    {
      "bufferView": 74,
      "componentType": 5126,
      "count": 4,
      "type": "VEC4"
    },
    {
      "bufferView": 75,
      "componentType": 5126,
      "count": 88,
      "max": [
        15.225573539733887,
        1.5520458221435547,
        33.014400482177734
      ],
      "min": [
        -15.687570571899414,
        -3.6893959045410156,
        -29.738210678100586
      ],
      "type": "VEC3"
    },
    {
      "bufferView": 76,
      "componentType": 5126,
      "count": 88,
      "type": "VEC3"
    },
    {
      "bufferView": 77,
      "componentType": 5126,
      "count": 88,
      "type": "VEC2"
    },
    {
      "bufferView": 78,
      "componentType": 5126,
      "count": 88,
      "type": "VEC4"
    },
    {
      "bufferView": 79,
      "componentType": 5123,
      "count": 132,
      "type": "SCALAR"
    },
    {
      "bufferView": 80,
      "componentType": 5126,
      "count": 28,
      "max": [
        9.913642883300781,
        -3.040099620819092,
        1.170712947845459
      ],
      "min": [
        -0.21731805801391602,
        -3.4532856941223145,
        -7.531268119812012
      ],
      "type": "VEC3"
    },
    {
      "bufferView": 81,
      "componentType": 5126,
      "count": 28,
      "type": "VEC3"
    },
    {
      "bufferView": 82,
      "componentType": 5126,
      "count": 28,
      "type": "VEC2"
    },
    {
      "bufferView": 83,
      "componentType": 5126,
      "count": 28,
      "type": "VEC4"
    },
    {
      "bufferView": 84,
      "componentType": 5123,
      "count": 42,
      "type": "SCALAR"
    },
    {
      "bufferView": 85,
      "componentType": 5126,
      "count": 181,
      "max": [
        14.927329063415527,
        2.1594748497009277,
        1.2431879043579102
      ],
      "min": [
        0.10381078720092773,
        -3.2401139736175537,
        -12.7168607711792
      ],
      "type": "VEC3"
    },
    {
      "bufferView": 86,
      "componentType": 5126,
      "count": 181,
      "type": "VEC3"
    },
    {
      "bufferView": 87,
      "componentType": 5126,
      "count": 181,
      "type": "VEC2"
    },
    {
      "bufferView": 88,
      "componentType": 5126,
      "count": 181,
      "type": "VEC4"
    },
    {
      "bufferView": 89,
      "componentType": 5123,
      "count": 369,
      "type": "SCALAR"
    },
    {
      "bufferView": 90,
      "componentType": 5126,
      "count": 15,
      "max": [
        15.195161819458008,
        -0.33780503273010254,
        7.226030349731445
      ],
      "min": [
        -0.9148540496826172,
        -3.2741096019744873,
        -11.462882041931152
      ],
      "type": "VEC3"
    },
    {
      "bufferView": 91,
      "componentType": 5126,
      "count": 15,
      "type": "VEC3"
    },
    {
      "bufferView": 92,
      "componentType": 5126,
      "count": 15,
      "type": "VEC2"
    },
    {
      "bufferView": 93,
      "componentType": 5126,
      "count": 15,
      "type": "VEC4"
    },
    {
      "bufferView": 94,
      "componentType": 5123,
      "count": 27,
      "type": "SCALAR"
    },
    {
      "bufferView": 95,
      "componentType": 5126,
      "count": 53,
      "max": [
        1.7081856727600098,
        1.9789977073669434,
        -11.839323997497559
      ],
      "min": [
        -2.2633466720581055,
        -3.9676930904388428,
        -12.676210403442383
      ],
      "type": "VEC3"
    },
    {
      "bufferView": 96,
      "componentType": 5126,
      "count": 53,
      "type": "VEC3"
    },
    {
      "bufferView": 97,
      "componentType": 5126,
      "count": 53,
      "type": "VEC2"
    },
    {
      "bufferView": 98,
      "componentType": 5126,
      "count": 53,
      "type": "VEC4"
    },
    {
      "bufferView": 99,
      "componentType": 5123,
      "count": 87,
      "type": "SCALAR"
    },
    {
      "bufferView": 100,
      "componentType": 5126,
      "count": 213,
      "max": [
        -3.252349853515625,
        2.7268238067626953,
        2.7219486236572266
      ],
      "min": [
        -10.277019500732422,
        -3.769301414489746,
        -4.104823112487793
      ],
      "type": "VEC3"
    },
    {
      "bufferView": 101,
      "componentType": 5126,
      "count": 213,
      "type": "VEC3"
    },
    {
      "bufferView": 102,
      "componentType": 5126,
      "count": 213,
      "type": "VEC2"
    },
    {
      "bufferView": 103,
      "componentType": 5126,
      "count": 213,
      "type": "VEC4"
    },
    {
      "bufferView": 104,
      "componentType": 5123,
      "count": 405,
      "type": "SCALAR"
    },
    {
      "bufferView": 105,
      "componentType": 5126,
      "count": 5,
      "max": [
        -0.8720002174377441,
        -0.7443602085113525,
        11.85569953918457
      ],
      "min": [
        -0.8720002174377441,
        -3.1131997108459473,
        5.5152997970581055
      ],
      "type": "VEC3"
    },
    {
      "bufferView": 106,
      "componentType": 5126,
      "count": 5,
      "type": "VEC3"
    },
    {
      "bufferView": 107,
      "componentType": 5126,
      "count": 5,
      "type": "VEC2"
    },
    {
      "bufferView": 108,
      "componentType": 5126,
      "count": 5,
      "type": "VEC4"
    },
    {
      "bufferView": 109,
      "componentType": 5126,
      "count": 48,
      "max": [
        15.201372146606445,
        -2.2167201042175293,
        16.84787940979004
      ],
      "min": [
        -0.9441609382629395,
        -3.574244499206543,
        -9.30449104309082
      ],
      "type": "VEC3"
    },
    {
      "bufferView": 110,
      "componentType": 5126,
      "count": 48,
      "type": "VEC3"
    },
    {
      "bufferView": 111,
      "componentType": 5126,
      "count": 48,
      "type": "VEC2"
    },
    {
      "bufferView": 112,
      "componentType": 5126,
      "count": 48,
      "type": "VEC4"
    },
    {
      "bufferView": 113,
      "componentType": 5123,
      "count": 72,
      "type": "SCALAR"
    },
    {
      "bufferView": 114,
      "componentType": 5126,
      "count": 4,
      "max": [
        10.603650093078613,
        -3.443645477294922,
        -6.681769371032715
      ],
      "min": [
        10.079161643981934,
        -3.4934754371643066,
        -7.386984825134277
      ],
      "type": "VEC3"
    },
    {
      "bufferView": 115,
      "componentType": 5126,
      "count": 4,
      "type": "VEC3"
    },
    {
      "bufferView": 116,
      "componentType": 5126,
      "count": 4,
      "type": "VEC2"
    },
    {
      "bufferView": 117,
      "componentType": 5126,
      "count": 4,
      "type": "VEC4"
    },
    {
      "bufferView": 118,
      "componentType": 5126,
      "count": 4,
      "max": [
        3.9720630645751953,
        -3.2322466373443604,
        -2.61028790473938
      ],
      "min": [
        3.446542978286743,
        -3.2727863788604736,
        -3.315502882003784
      ],
      "type": "VEC3"
    },
    {
      "bufferView": 119,
      "componentType": 5126,
      "count": 4,
      "type": "VEC3"
    },
    {
      "bufferView": 120,
      "componentType": 5126,
      "count": 4,
      "type": "VEC2"
    },
    {
      "bufferView": 121,
      "componentType": 5126,
      "count": 4,
      "type": "VEC4"
    },
    {
      "bufferView": 122,
      "componentType": 5126,
      "count": 5,
      "max": [
        15.19287395477295,
        -1.852182149887085,
        -2.0464510917663574
      ],
      "min": [
        15.19287395477295,
        -3.133720636367798,
        -4.6006622314453125
      ],
      "type": "VEC3"
    },
    {
      "bufferView": 123,
      "componentType": 5126,
      "count": 5,
      "type": "VEC3"
    },
    {
      "bufferView": 124,
      "componentType": 5126,
      "count": 5,
      "type": "VEC2"
    },
    {
      "bufferView": 125,
      "componentType": 5126,
      "count": 5,
      "type": "VEC4"
    },
    {
      "bufferView": 126,
      "componentType": 5126,
      "count": 5,
      "max": [
        15.192874908447266,
        -1.4924931526184082,
        -4.433758735656738
      ],
      "min": [
        15.192874908447266,
        -2.018609046936035,
        -5.146103858947754
      ],
      "type": "VEC3"
    },
    {
      "bufferView": 127,
      "componentType": 5126,
      "count": 5,
      "type": "VEC3"
    },
    {
      "bufferView": 128,
      "componentType": 5126,
      "count": 5,
      "type": "VEC2"
    },
    {
      "bufferView": 129,
      "componentType": 5126,
      "count": 5,
      "type": "VEC4"
    },
    {
      "bufferView": 130,
      "componentType": 5126,
      "count": 5,
      "max": [
        15.192874908447266,
        -2.282292127609253,
        -9.89047622680664
      ],
      "min": [
        15.192874908447266,
        -3.622295379638672,
        -12.561212539672852
      ],
      "type": "VEC3"
    },
    {
      "bufferView": 131,
      "componentType": 5126,
      "count": 5,
      "type": "VEC3"
    },
    {
      "bufferView": 132,
      "componentType": 5126,
      "count": 5,
      "type": "VEC2"
    },
    {
      "bufferView": 133,
      "componentType": 5126,
      "count": 5,
      "type": "VEC4"
    },
    {
      "bufferView": 134,
      "componentType": 5126,
      "count": 28,
      "max": [
        9.275524139404297,
        1.5565080642700195,
        1.247696876525879
      ],
      "min": [
        9.062870979309082,
        0.659276008605957,
        -12.714178085327148
      ],
      "type": "VEC3"
    },
    {
      "bufferView": 135,
      "componentType": 5126,
      "count": 28,
      "type": "VEC3"
    },
    {
      "bufferView": 136,
      "componentType": 5126,
      "count": 28,
      "type": "VEC2"
    },
    {
      "bufferView": 137,
      "componentType": 5126,
      "count": 28,
      "type": "VEC4"
    },
    {
      "bufferView": 138,
      "componentType": 5123,
      "count": 54,
      "type": "SCALAR"
    },
    {
      "bufferView": 139,
      "componentType": 5126,
      "count": 39,
      "max": [
        -5.1072797775268555,
        -1.4498331546783447,
        0.7445278167724609
      ],
      "min": [
        -7.710359573364258,
        -4.290914058685303,
        -2.2355189323425293
      ],
      "type": "VEC3"
    },
    {
      "bufferView": 140,
      "componentType": 5126,
      "count": 39,
      "type": "VEC3"
    },
    {
      "bufferView": 141,
      "componentType": 5126,
      "count": 39,
      "type": "VEC2"
    },
    {
      "bufferView": 142,
      "componentType": 5126,
      "count": 39,
      "type": "VEC4"
    },
    {
      "bufferView": 143,
      "componentType": 5123,
      "count": 57,
      "type": "SCALAR"
    },
    {
      "bufferView": 144,
      "componentType": 5126,
      "count": 2016,
      "max": [
        13.459413528442383,
        2.918548583984375,
        30.097637176513672
      ],
      "min": [
        -0.10220527648925781,
        1.0623226165771484,
        -28.22117805480957
      ],
      "type": "VEC3"
    },
    {
      "bufferView": 145,
      "componentType": 5126,
      "count": 2016,
      "type": "VEC3"
    },
    {
      "bufferView": 146,
      "componentType": 5126,
      "count": 2016,
      "type": "VEC2"
    },
    {
      "bufferView": 147,
      "componentType": 5126,
      "count": 2016,
      "type": "VEC4"
    },
    {
      "bufferView": 148,
      "componentType": 5123,
      "count": 3240,
      "type": "SCALAR"
    },
    {
      "bufferView": 149,
      "componentType": 5126,
      "count": 296,
      "max": [
        -0.8892478942871094,
        5.631740093231201,
        5.664839744567871
      ],
      "min": [
        -12.752470016479492,
        -3.645258665084839,
        -7.155895233154297
      ],
      "type": "VEC3"
    },
    {
      "bufferView": 150,
      "componentType": 5126,
      "count": 296,
      "type": "VEC3"
    },
    {
      "bufferView": 151,
      "componentType": 5126,
      "count": 296,
      "type": "VEC2"
    },
    {
      "bufferView": 152,
      "componentType": 5126,
      "count": 296,
      "type": "VEC4"
    },
    {
      "bufferView": 153,
      "componentType": 5123,
      "count": 480,
      "type": "SCALAR"
    },
    {
      "bufferView": 154,
      "componentType": 5126,
      "count": 5,
      "max": [
        15.192874908447266,
        -2.4234211444854736,
        -4.268461227416992
      ],
      "min": [
        15.192874908447266,
        -3.0273571014404297,
        -5.47215461730957
      ],
      "type": "VEC3"
    },
    {
      "bufferView": 155,
      "componentType": 5126,
      "count": 5,
      "type": "VEC3"
    },
    {
      "bufferView": 156,
      "componentType": 5126,
      "count": 5,
      "type": "VEC2"
    },
    {
      "bufferView": 157,
      "componentType": 5126,
      "count": 5,
      "type": "VEC4"
    },
    {
      "bufferView": 158,
      "componentType": 5126,
      "count": 4,
      "max": [
        3.9771370887756348,
        -3.017927408218384,
        1.41276216506958
      ],
      "min": [
        3.4516170024871826,
        -3.058467149734497,
        0.7075481414794922
      ],
      "type": "VEC3"
    },
    {
      "bufferView": 159,
      "componentType": 5126,
      "count": 4,
      "type": "VEC3"
    },
    {
      "bufferView": 160,
      "componentType": 5126,
      "count": 4,
      "type": "VEC2"
    },
    {
      "bufferView": 161,
      "componentType": 5126,
      "count": 4,
      "type": "VEC4"
    },
    {
      "bufferView": 162,
      "componentType": 5126,
      "count": 15,
      "max": [
        15.200077056884766,
        0.8663539886474609,
        1.1427741050720215
      ],
      "min": [
        15.200077056884766,
        -1.0257320404052734,
        -12.665548324584961
      ],
      "type": "VEC3"
    },
    {
      "bufferView": 163,
      "componentType": 5126,
      "count": 15,
      "type": "VEC3"
    },
    {
      "bufferView": 164,
      "componentType": 5126,
      "count": 15,
      "type": "VEC2"
    },
    {
      "bufferView": 165,
      "componentType": 5126,
      "count": 15,
      "type": "VEC4"
    },
    {
      "bufferView": 166,
      "componentType": 5123,
      "count": 39,
      "type": "SCALAR"
    },
    {
      "bufferView": 167,
      "componentType": 5126,
      "count": 5,
      "max": [
        14.906743049621582,
        -2.1554932594299316,
        -14.946812629699707
      ],
      "min": [
        14.906743049621582,
        -3.7798831462860107,
        -20.582929611206055
      ],
      "type": "VEC3"
    },
    {
      "bufferView": 168,
      "componentType": 5126,
      "count": 5,
      "type": "VEC3"
    },
    {
      "bufferView": 169,
      "componentType": 5126,
      "count": 5,
      "type": "VEC2"
    },
    {
      "bufferView": 170,
      "componentType": 5126,
      "count": 5,
      "type": "VEC4"
    },
    {
      "bufferView": 171,
      "componentType": 5126,
      "count": 128,
      "max": [
        14.506103515625,
        -1.7369850873947144,
        -12.801910400390625
      ],
      "min": [
        -0.7142200469970703,
        -3.7374114990234375,
        -29.324539184570312
      ],
      "type": "VEC3"
    },
    {
      "bufferView": 172,
      "componentType": 5126,
      "count": 128,
      "type": "VEC3"
    },
    {
      "bufferView": 173,
      "componentType": 5126,
      "count": 128,
      "type": "VEC2"
    },
    {
      "bufferView": 174,
      "componentType": 5126,
      "count": 128,
      "type": "VEC4"
    },
    {
      "bufferView": 175,
      "componentType": 5123,
      "count": 216,
      "type": "SCALAR"
    },
    {
      "bufferView": 176,
      "componentType": 5126,
      "count": 5,
      "max": [
        15.192874908447266,
        -2.1278209686279297,
        -1.9412751197814941
      ],
      "min": [
        15.192874908447266,
        -2.4579806327819824,
        -2.599308967590332
      ],
      "type": "VEC3"
    },
    {
      "bufferView": 177,
      "componentType": 5126,
      "count": 5,
      "type": "VEC3"
    },
    {
      "bufferView": 178,
      "componentType": 5126,
      "count": 5,
      "type": "VEC2"
    },
    {
      "bufferView": 179,
      "componentType": 5126,
      "count": 5,
      "type": "VEC4"
    },
    {
      "bufferView": 180,
      "componentType": 5126,
      "count": 15,
      "max": [
        15.192874908447266,
        -0.6399869918823242,
        14.275720596313477
      ],
      "min": [
        14.820610046386719,
        -3.754770278930664,
        -24.427249908447266
      ],
      "type": "VEC3"
    },
    {
      "bufferView": 181,
      "componentType": 5126,
      "count": 15,
      "type": "VEC3"
    },
    {
      "bufferView": 182,
      "componentType": 5126,
      "count": 15,
      "type": "VEC2"
    },
    {
      "bufferView": 183,
      "componentType": 5126,
      "count": 15,
      "type": "VEC4"
    },
    {
      "bufferView": 184,
      "componentType": 5126,
      "count": 682,
      "max": [
        14.39297866821289,
        2.59218168258667,
        2.098750114440918
      ],
      "min": [
        -1.5343999862670898,
        -2.528907060623169,
        -12.665548324584961
      ],
      "type": "VEC3"
    },
    {
      "bufferView": 185,
      "componentType": 5126,
      "count": 682,
      "type": "VEC3"
    },
    {
      "bufferView": 186,
      "componentType": 5126,
      "count": 682,
      "type": "VEC2"
    },
    {
      "bufferView": 187,
      "componentType": 5126,
      "count": 682,
      "type": "VEC4"
    },
    {
      "bufferView": 188,
      "componentType": 5123,
      "count": 1212,
      "type": "SCALAR"
    },
    {
      "bufferView": 189,
      "componentType": 5126,
      "count": 3,
      "max": [
        -8.687359809875488,
        0.7152228355407715,
        14.250150680541992
      ],
      "min": [
        -8.687359809875488,
        0.7152228355407715,
        12.249900817871094
      ],
      "type": "VEC3"
    },
    {
      "bufferView": 190,
      "componentType": 5126,
      "count": 3,
      "type": "VEC3"
    },
    {
      "bufferView": 191,
      "componentType": 5126,
      "count": 3,
      "type": "VEC2"
    },
    {
      "bufferView": 192,
      "componentType": 5126,
      "count": 3,
      "type": "VEC4"
    },
    {
      "bufferView": 193,
      "componentType": 5123,
      "count": 3,
      "type": "SCALAR"
    },
    {
      "bufferView": 194,
      "componentType": 5126,
      "count": 5,
      "max": [
        15.192873001098633,
        -1.4238710403442383,
        -10.761312484741211
      ],
      "min": [
        15.192873001098633,
        -2.869762659072876,
        -12.866437911987305
      ],
      "type": "VEC3"
    },
    {
      "bufferView": 195,
      "componentType": 5126,
      "count": 5,
      "type": "VEC3"
    },
    {
      "bufferView": 196,
      "componentType": 5126,
      "count": 5,
      "type": "VEC2"
    },
    {
      "bufferView": 197,
      "componentType": 5126,
      "count": 5,
      "type": "VEC4"
    },
    {
      "bufferView": 198,
      "componentType": 5126,
      "count": 5,
      "max": [
        15.192874908447266,
        -1.8193271160125732,
        -3.4089341163635254
      ],
      "min": [
        15.192874908447266,
        -2.0865840911865234,
        -3.965708017349243
      ],
      "type": "VEC3"
    },
    {
      "bufferView": 199,
      "componentType": 5126,
      "count": 5,
      "type": "VEC3"
    },
    {
      "bufferView": 200,
      "componentType": 5126,
      "count": 5,
      "type": "VEC2"
    },
    {
      "bufferView": 201,
      "componentType": 5126,
      "count": 5,
      "type": "VEC4"
    },
    {
      "bufferView": 202,
      "componentType": 5126,
      "count": 52,
      "max": [
        -2.108309745788574,
        3.743812084197998,
        3.2998552322387695
      ],
      "min": [
        -11.717769622802734,
        -2.747002363204956,
        -5.316205978393555
      ],
      "type": "VEC3"
    },
    {
      "bufferView": 203,
      "componentType": 5126,
      "count": 52,
      "type": "VEC3"
    },
    {
      "bufferView": 204,
      "componentType": 5126,
      "count": 52,
      "type": "VEC2"
    },
    {
      "bufferView": 205,
      "componentType": 5126,
      "count": 52,
      "type": "VEC4"
    },
    {
      "bufferView": 206,
      "componentType": 5123,
      "count": 90,
      "type": "SCALAR"
    }
  ],
  "bufferViews": [
    {
      "buffer": 0,
      "byteLength": 24696,
      "byteOffset": 0,
      "target": 34962
    },
    {
      "buffer": 0,
      "byteLength": 24696,
      "byteOffset": 24696,
      "target": 34962
    },
    {
      "buffer": 0,
      "byteLength": 16464,
      "byteOffset": 49392,
      "target": 34962
    },
    {
      "buffer": 0,
      "byteLength": 32928,
      "byteOffset": 65856,
      "target": 34962
    },
    {
      "buffer": 0,
      "byteLength": 4512,
      "byteOffset": 98784,
      "target": 34963
    },
    {
      "buffer": 0,
      "byteLength": 21504,
      "byteOffset": 103296,
      "target": 34962
    },
    {
      "buffer": 0,
      "byteLength": 21504,
      "byteOffset": 124800,
      "target": 34962
    },
    {
      "buffer": 0,
      "byteLength": 14336,
      "byteOffset": 146304,
      "target": 34962
    },
    {
      "buffer": 0,
      "byteLength": 28672,
      "byteOffset": 160640,
      "target": 34962
    },
    {
      "buffer": 0,
      "byteLength": 3744,
      "byteOffset": 189312,
      "target": 34963
    },
    {
      "buffer": 0,
      "byteLength": 75012,
      "byteOffset": 193056,
      "target": 34962
    },
    {
      "buffer": 0,
      "byteLength": 75012,
      "byteOffset": 268068,
      "target": 34962
    },
    {
      "buffer": 0,
      "byteLength": 50008,
      "byteOffset": 343080,
      "target": 34962
    },
    {
      "buffer": 0,
      "byteLength": 100016,
      "byteOffset": 393088,
      "target": 34962
    },
    {
      "buffer": 0,
      "byteLength": 26802,
      "byteOffset": 493104,
      "target": 34963
    },
    {
      "buffer": 0,
      "byteLength": 2016,
      "byteOffset": 519908,
      "target": 34962
    },
    {
      "buffer": 0,
      "byteLength": 2016,
      "byteOffset": 521924,
      "target": 34962
    },
    {
      "buffer": 0,
      "byteLength": 1344,
      "byteOffset": 523940,
      "target": 34962
    },
    {
      "buffer": 0,
      "byteLength": 2688,
      "byteOffset": 525284,
      "target": 34962
    },
    {
      "buffer": 0,
      "byteLength": 750,
      "byteOffset": 527972,
      "target": 34963
    },
    {
      "buffer": 0,
      "byteLength": 323004,
      "byteOffset": 528724,
      "target": 34962
    },
    {
      "buffer": 0,
      "byteLength": 323004,
      "byteOffset": 851728,
      "target": 34962
    },
    {
      "buffer": 0,
      "byteLength": 215336,
      "byteOffset": 1174732,
      "target": 34962
    },
    {
      "buffer": 0,
      "byteLength": 430672,
      "byteOffset": 1390068,
      "target": 34962
    },
    {
      "buffer": 0,
      "byteLength": 90714,
      "byteOffset": 1820740,
      "target": 34963
    },
    {
      "buffer": 0,
      "byteLength": 48,
      "byteOffset": 1911456,
      "target": 34962
    },
    {
      "buffer": 0,
      "byteLength": 48,
      "byteOffset": 1911504,
      "target": 34962
    },
    {
      "buffer": 0,
      "byteLength": 32,
      "byteOffset": 1911552,
      "target": 34962
    },
    {
      "buffer": 0,
      "byteLength": 64,
      "byteOffset": 1911584,
      "target": 34962
    },
    {
      "buffer": 0,
      "byteLength": 12,
      "byteOffset": 1911648,
      "target": 34963
    },
    {
      "buffer": 0,
      "byteLength": 48,
      "byteOffset": 1911660,
      "target": 34962
    },
    {
      "buffer": 0,
      "byteLength": 48,
      "byteOffset": 1911708,
      "target": 34962
    },
    {
      "buffer": 0,
      "byteLength": 32,
      "byteOffset": 1911756,
      "target": 34962
    },
    {
      "buffer": 0,
      "byteLength": 64,
      "byteOffset": 1911788,
      "target": 34962
    },
    {
      "buffer": 0,
      "byteLength": 264,
      "byteOffset": 1911852,
      "target": 34962
    },
    {
      "buffer": 0,
      "byteLength": 264,
      "byteOffset": 1912116,
      "target": 34962
    },
    {
      "buffer": 0,
      "byteLength": 176,
      "byteOffset": 1912380,
      "target": 34962
    },
    {
      "buffer": 0,
      "byteLength": 352,
      "byteOffset": 1912556,
      "target": 34962
    },
    {
      "buffer": 0,
      "byteLength": 84,
      "byteOffset": 1912908,
      "target": 34963
    },
    {
      "buffer": 0,
      "byteLength": 60,
      "byteOffset": 1912992,
      "target": 34962
    },
    {
      "buffer": 0,
      "byteLength": 60,
      "byteOffset": 1913052,
      "target": 34962
    },
    {
      "buffer": 0,
      "byteLength": 40,
      "byteOffset": 1913112,
      "target": 34962
    },
    {
      "buffer": 0,
      "byteLength": 80,
      "byteOffset": 1913152,
      "target": 34962
    },
    {
      "buffer": 0,
      "byteLength": 18,
      "byteOffset": 1913232,
      "target": 34963
    },
    {
      "buffer": 0,
      "byteLength": 3528,
      "byteOffset": 1913252,
      "target": 34962
    },
    {
      "buffer": 0,
      "byteLength": 3528,
      "byteOffset": 1916780,
      "target": 34962
    },
    {
      "buffer": 0,
      "byteLength": 2352,
      "byteOffset": 1920308,
      "target": 34962
    },
    {
      "buffer": 0,
      "byteLength": 4704,
      "byteOffset": 1922660,
      "target": 34962
    },
    {
      "buffer": 0,
      "byteLength": 1512,
      "byteOffset": 1927364,
      "target": 34963
    },
    {
      "buffer": 0,
      "byteLength": 2184,
      "byteOffset": 1928876,
      "target": 34962
    },
    {
      "buffer": 0,
      "byteLength": 2184,
      "byteOffset": 1931060,
      "target": 34962
    },
    {
      "buffer": 0,
      "byteLength": 1456,
      "byteOffset": 1933244,
      "target": 34962
    },
    {
      "buffer": 0,
      "byteLength": 2912,
      "byteOffset": 1934700,
      "target": 34962
    },
    {
      "buffer": 0,
      "byteLength": 1758,
      "byteOffset": 1937612,
      "target": 34963
    },
    {
      "buffer": 0,
      "byteLength": 48,
      "byteOffset": 1939372,
      "target": 34962
    },
    {
      "buffer": 0,
      "byteLength": 48,
      "byteOffset": 1939420,
      "target": 34962
    },
    {
      "buffer": 0,
      "byteLength": 32,
      "byteOffset": 1939468,
      "target": 34962
    },
    {
      "buffer": 0,
      "byteLength": 64,
      "byteOffset": 1939500,
      "target": 34962
    },
    {
      "buffer": 0,
      "byteLength": 48,
      "byteOffset": 1939564,
      "target": 34962
    },
    {
      "buffer": 0,
      "byteLength": 48,
      "byteOffset": 1939612,
      "target": 34962
    },
    {
      "buffer": 0,
      "byteLength": 32,
      "byteOffset": 1939660,
      "target": 34962
    },
    {
      "buffer": 0,
      "byteLength": 64,
      "byteOffset": 1939692,
      "target": 34962
    },
    {
      "buffer": 0,
      "byteLength": 288,
      "byteOffset": 1939756,
      "target": 34962
    },
    {
      "buffer": 0,
      "byteLength": 288,
      "byteOffset": 1940044,
      "target": 34962
    },
    {
      "buffer": 0,
      "byteLength": 192,
      "byteOffset": 1940332,
      "target": 34962
    },
    {
      "buffer": 0,
      "byteLength": 384,
      "byteOffset": 1940524,
      "target": 34962
    },
    {
      "buffer": 0,
      "byteLength": 108,
      "byteOffset": 1940908,
      "target": 34963
    },
    {
      "buffer": 0,
      "byteLength": 48,
      "byteOffset": 1941016,
      "target": 34962
    },
    {
      "buffer": 0,
      "byteLength": 48,
      "byteOffset": 1941064,
      "target": 34962
    },
    {
      "buffer": 0,
      "byteLength": 32,
      "byteOffset": 1941112,
      "target": 34962
    },
    {
      "buffer": 0,
      "byteLength": 64,
      "byteOffset": 1941144,
      "target": 34962
    },
    {
      "buffer": 0,
      "byteLength": 48,
      "byteOffset": 1941208,
      "target": 34962
    },
    {
      "buffer": 0,
      "byteLength": 48,
      "byteOffset": 1941256,
      "target": 34962
    },
    {
      "buffer": 0,
      "byteLength": 32,
      "byteOffset": 1941304,
      "target": 34962
    },
    {
      "buffer": 0,
      "byteLength": 64,
      "byteOffset": 1941336,
      "target": 34962
    },
    {
      "buffer": 0,
      "byteLength": 1056,
      "byteOffset": 1941400,
      "target": 34962
    },
    {
      "buffer": 0,
      "byteLength": 1056,
      "byteOffset": 1942456,
      "target": 34962
    },
    {
      "buffer": 0,
      "byteLength": 704,
      "byteOffset": 1943512,
      "target": 34962
    },
    {
      "buffer": 0,
      "byteLength": 1408,
      "byteOffset": 1944216,
      "target": 34962
    },
    {
      "buffer": 0,
      "byteLength": 264,
      "byteOffset": 1945624,
      "target": 34963
    },
    {
      "buffer": 0,
      "byteLength": 336,
      "byteOffset": 1945888,
      "target": 34962
    },
    {
      "buffer": 0,
      "byteLength": 336,
      "byteOffset": 1946224,
      "target": 34962
    },
    {
      "buffer": 0,
      "byteLength": 224,
      "byteOffset": 1946560,
      "target": 34962
    },
    {
      "buffer": 0,
      "byteLength": 448,
      "byteOffset": 1946784,
      "target": 34962
    },
    {
      "buffer": 0,
      "byteLength": 84,
      "byteOffset": 1947232,
      "target": 34963
    },
    {
      "buffer": 0,
      "byteLength": 2172,
      "byteOffset": 1947316,
      "target": 34962
    },
    {
      "buffer": 0,
      "byteLength": 2172,
      "byteOffset": 1949488,
      "target": 34962
    },
    {
      "buffer": 0,
      "byteLength": 1448,
      "byteOffset": 1951660,
      "target": 34962
    },
    {
      "buffer": 0,
      "byteLength": 2896,
      "byteOffset": 1953108,
      "target": 34962
    },
    {
      "buffer": 0,
      "byteLength": 738,
      "byteOffset": 1956004,
      "target": 34963
    },
    {
      "buffer": 0,
      "byteLength": 180,
      "byteOffset": 1956744,
      "target": 34962
    },
    {
      "buffer": 0,
      "byteLength": 180,
      "byteOffset": 1956924,
      "target": 34962
    },
    {
      "buffer": 0,
      "byteLength": 120,
      "byteOffset": 1957104,
      "target": 34962
    },
    {
      "buffer": 0,
      "byteLength": 240,
      "byteOffset": 1957224,
      "target": 34962
    },
    {
      "buffer": 0,
      "byteLength": 54,
      "byteOffset": 1957464,
      "target": 34963
    },
    {
      "buffer": 0,
      "byteLength": 636,
      "byteOffset": 1957520,
      "target": 34962
    },
    {
      "buffer": 0,
      "byteLength": 636,
      "byteOffset": 1958156,
      "target": 34962
    },
    {
      "buffer": 0,
      "byteLength": 424,
      "byteOffset": 1958792,
      "target": 34962
    },
    {
      "buffer": 0,
      "byteLength": 848,
      "byteOffset": 1959216,
      "target": 34962
    },
    {
      "buffer": 0,
      "byteLength": 174,
      "byteOffset": 1960064,
      "target": 34963
    },
    {
      "buffer": 0,
      "byteLength": 2556,
      "byteOffset": 1960240,
      "target": 34962
    },
    {
      "buffer": 0,
      "byteLength": 2556,
      "byteOffset": 1962796,
      "target": 34962
    },
    {
      "buffer": 0,
      "byteLength": 1704,
      "byteOffset": 1965352,
      "target": 34962
    },
    {
      "buffer": 0,
      "byteLength": 3408,
      "byteOffset": 1967056,
      "target": 34962
    },
    {
      "buffer": 0,
      "byteLength": 810,
      "byteOffset": 1970464,
      "target": 34963
    },
    {
      "buffer": 0,
      "byteLength": 60,
      "byteOffset": 1971276,
      "target": 34962
    },
    {
      "buffer": 0,
      "byteLength": 60,
      "byteOffset": 1971336,
      "target": 34962
    },
    {
      "buffer": 0,
      "byteLength": 40,
      "byteOffset": 1971396,
      "target": 34962
    },
    {
      "buffer": 0,
      "byteLength": 80,
      "byteOffset": 1971436,
      "target": 34962
    },
    {
      "buffer": 0,
      "byteLength": 576,
      "byteOffset": 1971516,
      "target": 34962
    },
    {
      "buffer": 0,
      "byteLength": 576,
      "byteOffset": 1972092,
      "target": 34962
    },
    {
      "buffer": 0,
      "byteLength": 384,
      "byteOffset": 1972668,
      "target": 34962
    },
    {
      "buffer": 0,
      "byteLength": 768,
      "byteOffset": 1973052,
      "target": 34962
    },
    {
      "buffer": 0,
      "byteLength": 144,
      "byteOffset": 1973820,
      "target": 34963
    },
    {
      "buffer": 0,
      "byteLength": 48,
      "byteOffset": 1973964,
      "target": 34962
    },
    {
      "buffer": 0,
      "byteLength": 48,
      "byteOffset": 1974012,
      "target": 34962
    },
    {
      "buffer": 0,
      "byteLength": 32,
      "byteOffset": 1974060,
      "target": 34962
    },
    {
      "buffer": 0,
      "byteLength": 64,
      "byteOffset": 1974092,
      "target": 34962
    },
    {
      "buffer": 0,
      "byteLength": 48,
      "byteOffset": 1974156,
      "target": 34962
    },
    {
      "buffer": 0,
      "byteLength": 48,
      "byteOffset": 1974204,
      "target": 34962
    },
    {
      "buffer": 0,
      "byteLength": 32,
      "byteOffset": 1974252,
      "target": 34962
    },
    {
      "buffer": 0,
      "byteLength": 64,
      "byteOffset": 1974284,
      "target": 34962
    },
    {
      "buffer": 0,
      "byteLength": 60,
      "byteOffset": 1974348,
      "target": 34962
    },
    {
      "buffer": 0,
      "byteLength": 60,
      "byteOffset": 1974408,
      "target": 34962
    },
    {
      "buffer": 0,
      "byteLength": 40,
      "byteOffset": 1974468,
      "target": 34962
    },
    {
      "buffer": 0,
      "byteLength": 80,
      "byteOffset": 1974508,
      "target": 34962
    },
    {
      "buffer": 0,
      "byteLength": 60,
      "byteOffset": 1974588,
      "target": 34962
    },
    {
      "buffer": 0,
      "byteLength": 60,
      "byteOffset": 1974648,
      "target": 34962
    },
    {
      "buffer": 0,
      "byteLength": 40,
      "byteOffset": 1974708,
      "target": 34962
    },
    {
      "buffer": 0,
      "byteLength": 80,
      "byteOffset": 1974748,
      "target": 34962
    },
    {
      "buffer": 0,
      "byteLength": 60,
      "byteOffset": 1974828,
      "target": 34962
    },
    {
      "buffer": 0,
      "byteLength": 60,
      "byteOffset": 1974888,
      "target": 34962
    },
    {
      "buffer": 0,
      "byteLength": 40,
      "byteOffset": 1974948,
      "target": 34962
    },
    {
      "buffer": 0,
      "byteLength": 80,
      "byteOffset": 1974988,
      "target": 34962
    },
    {
      "buffer": 0,
      "byteLength": 336,
      "byteOffset": 1975068,
      "target": 34962
    },
    {
      "buffer": 0,
      "byteLength": 336,
      "byteOffset": 1975404,
      "target": 34962
    },
    {
      "buffer": 0,
      "byteLength": 224,
      "byteOffset": 1975740,
      "target": 34962
    },
    {
      "buffer": 0,
      "byteLength": 448,
      "byteOffset": 1975964,
      "target": 34962
    },
    {
      "buffer": 0,
      "byteLength": 108,
      "byteOffset": 1976412,
      "target": 34963
    },
    {
      "buffer": 0,
      "byteLength": 468,
      "byteOffset": 1976520,
      "target": 34962
    },
    {
      "buffer": 0,
      "byteLength": 468,
      "byteOffset": 1976988,
      "target": 34962
    },
    {
      "buffer": 0,
      "byteLength": 312,
      "byteOffset": 1977456,
      "target": 34962
    },
    {
      "buffer": 0,
      "byteLength": 624,
      "byteOffset": 1977768,
      "target": 34962
    },
    {
      "buffer": 0,
      "byteLength": 114,
      "byteOffset": 1978392,
      "target": 34963
    },
    {
      "buffer": 0,
      "byteLength": 24192,
      "byteOffset": 1978508,
      "target": 34962
    },
    {
      "buffer": 0,
      "byteLength": 24192,
      "byteOffset": 2002700,
      "target": 34962
    },
    {
      "buffer": 0,
      "byteLength": 16128,
      "byteOffset": 2026892,
      "target": 34962
    },
    {
      "buffer": 0,
      "byteLength": 32256,
      "byteOffset": 2043020,
      "target": 34962
    },
    {
      "buffer": 0,
      "byteLength": 6480,
      "byteOffset": 2075276,
      "target": 34963
    },
    {
      "buffer": 0,
      "byteLength": 3552,
      "byteOffset": 2081756,
      "target": 34962
    },
    {
      "buffer": 0,
      "byteLength": 3552,
      "byteOffset": 2085308,
      "target": 34962
    },
    {
      "buffer": 0,
      "byteLength": 2368,
      "byteOffset": 2088860,
      "target": 34962
    },
    {
      "buffer": 0,
      "byteLength": 4736,
      "byteOffset": 2091228,
      "target": 34962
    },
    {
      "buffer": 0,
      "byteLength": 960,
      "byteOffset": 2095964,
      "target": 34963
    },
    {
      "buffer": 0,
      "byteLength": 60,
      "byteOffset": 2096924,
      "target": 34962
    },
    {
      "buffer": 0,
      "byteLength": 60,
      "byteOffset": 2096984,
      "target": 34962
    },
    {
      "buffer": 0,
      "byteLength": 40,
      "byteOffset": 2097044,
      "target": 34962
    },
    {
      "buffer": 0,
      "byteLength": 80,
      "byteOffset": 2097084,
      "target": 34962
    },
    {
      "buffer": 0,
      "byteLength": 48,
      "byteOffset": 2097164,
      "target": 34962
    },
    {
      "buffer": 0,
      "byteLength": 48,
      "byteOffset": 2097212,
      "target": 34962
    },
    {
      "buffer": 0,
      "byteLength": 32,
      "byteOffset": 2097260,
      "target": 34962
    },
    {
      "buffer": 0,
      "byteLength": 64,
      "byteOffset": 2097292,
      "target": 34962
    },
    {
      "buffer": 0,
      "byteLength": 180,
      "byteOffset": 2097356,
      "target": 34962
    },
    {
      "buffer": 0,
      "byteLength": 180,
      "byteOffset": 2097536,
      "target": 34962
    },
    {
      "buffer": 0,
      "byteLength": 120,
      "byteOffset": 2097716,
      "target": 34962
    },
    {
      "buffer": 0,
      "byteLength": 240,
      "byteOffset": 2097836,
      "target": 34962
    },
    {
      "buffer": 0,
      "byteLength": 78,
      "byteOffset": 2098076,
      "target": 34963
    },
    {
      "buffer": 0,
      "byteLength": 60,
      "byteOffset": 2098156,
      "target": 34962
    },
    {
      "buffer": 0,
      "byteLength": 60,
      "byteOffset": 2098216,
      "target": 34962
    },
    {
      "buffer": 0,
      "byteLength": 40,
      "byteOffset": 2098276,
      "target": 34962
    },
    {
      "buffer": 0,
      "byteLength": 80,
      "byteOffset": 2098316,
      "target": 34962
    },
    {
      "buffer": 0,
      "byteLength": 1536,
      "byteOffset": 2098396,
      "target": 34962
    },
    {
      "buffer": 0,
      "byteLength": 1536,
      "byteOffset": 2099932,
      "target": 34962
    },
    {
      "buffer": 0,
      "byteLength": 1024,
      "byteOffset": 2101468,
      "target": 34962
    },
    {
      "buffer": 0,
      "byteLength": 2048,
      "byteOffset": 2102492,
      "target": 34962
    },
    {
      "buffer": 0,
      "byteLength": 432,
      "byteOffset": 2104540,
      "target": 34963
    },
    {
      "buffer": 0,
      "byteLength": 60,
      "byteOffset": 2104972,
      "target": 34962
    },
    {
      "buffer": 0,
      "byteLength": 60,
      "byteOffset": 2105032,
      "target": 34962
    },
    {
      "buffer": 0,
      "byteLength": 40,
      "byteOffset": 2105092,
      "target": 34962
    },
    {
      "buffer": 0,
      "byteLength": 80,
      "byteOffset": 2105132,
      "target": 34962
    },
    {
      "buffer": 0,
      "byteLength": 180,
      "byteOffset": 2105212,
      "target": 34962
    },
    {
      "buffer": 0,
      "byteLength": 180,
      "byteOffset": 2105392,
      "target": 34962
    },
    {
      "buffer": 0,
      "byteLength": 120,
      "byteOffset": 2105572,
      "target": 34962
    },
    {
      "buffer": 0,
      "byteLength": 240,
      "byteOffset": 2105692,
      "target": 34962
    },
    {
      "buffer": 0,
      "byteLength": 8184,
      "byteOffset": 2105932,
      "target": 34962
    },
    {
      "buffer": 0,
      "byteLength": 8184,
      "byteOffset": 2114116,
      "target": 34962
    },
    {
      "buffer": 0,
      "byteLength": 5456,
      "byteOffset": 2122300,
      "target": 34962
    },
    {
      "buffer": 0,
      "byteLength": 10912,
      "byteOffset": 2127756,
      "target": 34962
    },
    {
      "buffer": 0,
      "byteLength": 2424,
      "byteOffset": 2138668,
      "target": 34963
    },
    {
      "buffer": 0,
      "byteLength": 36,
      "byteOffset": 2141092,
      "target": 34962
    },
    {
      "buffer": 0,
      "byteLength": 36,
      "byteOffset": 2141128,
      "target": 34962
    },
    {
      "buffer": 0,
      "byteLength": 24,
      "byteOffset": 2141164,
      "target": 34962
    },
    {
      "buffer": 0,
      "byteLength": 48,
      "byteOffset": 2141188,
      "target": 34962
    },
    {
      "buffer": 0,
      "byteLength": 6,
      "byteOffset": 2141236,
      "target": 34963
    },
    {
      "buffer": 0,
      "byteLength": 60,
      "byteOffset": 2141244,
      "target": 34962
    },
    {
      "buffer": 0,
      "byteLength": 60,
      "byteOffset": 2141304,
      "target": 34962
    },
    {
      "buffer": 0,
      "byteLength": 40,
      "byteOffset": 2141364,
      "target": 34962
    },
    {
      "buffer": 0,
      "byteLength": 80,
      "byteOffset": 2141404,
      "target": 34962
    },
    {
      "buffer": 0,
      "byteLength": 60,
      "byteOffset": 2141484,
      "target": 34962
    },
    {
      "buffer": 0,
      "byteLength": 60,
      "byteOffset": 2141544,
      "target": 34962
    },
    {
      "buffer": 0,
      "byteLength": 40,
      "byteOffset": 2141604,
      "target": 34962
    },
    {
      "buffer": 0,
      "byteLength": 80,
      "byteOffset": 2141644,
      "target": 34962
    },
    {
      "buffer": 0,
      "byteLength": 624,
      "byteOffset": 2141724,
      "target": 34962
    },
    {
      "buffer": 0,
      "byteLength": 624,
      "byteOffset": 2142348,
      "target": 34962
    },
    {
      "buffer": 0,
      "byteLength": 416,
      "byteOffset": 2142972,
      "target": 34962
    },
    {
      "buffer": 0,
      "byteLength": 832,
      "byteOffset": 2143388,
      "target": 34962
    },
    {
      "buffer": 0,
      "byteLength": 180,
      "byteOffset": 2144220,
      "target": 34963
    }
  ],
  "samplers": [
    {
      "magFilter": 9729,
      "minFilter": 9987
    }
  ],
  "buffers": [
    {
      "byteLength": 2144400,
      "uri": "Showroom.bin"
    }
  ]
}